<?xml version="1.0" encoding="UTF-8"?>
<svg width="72px" height="96px" viewBox="0 0 72 96" version="1.1" xmlns="http://www.w3.org/2000/svg" xmlns:xlink="http://www.w3.org/1999/xlink">
    <!-- Generator: Sketch 43.2 (39069) - http://www.bohemiancoding.com/sketch -->
    <title>logo</title>
    <desc>Created with Sketch.</desc>
    <defs></defs>
    <g id="Symbols" stroke="none" stroke-width="1" fill="none" fill-rule="evenodd">
        <g id="header">
            <g id="logo/black">
                <g>
                    <g id="logo">
                        <rect id="Rectangle-3" fill="#111111" x="0" y="0" width="72" height="96"></rect>
                        <path d="M33.4407526,51.6512059 L33.4407526,21.681099 L24.3562396,21.681099 L24.3562396,17.4545455 L46.8742345,17.4545455 L46.8742345,21.681099 L37.7897215,21.681099 L37.7897215,51.6512059 L33.4407526,51.6512059 Z M21.6654066,71.3821267 C21.6654066,67.2747671 25.0274378,63.9405576 29.1099043,63.9405576 C33.1923708,63.9405576 36.554402,67.2747671 36.554402,71.3821267 C36.554402,75.4894863 33.1923708,78.8236958 29.1099043,78.8236958 C25.0274378,78.8236958 21.6654066,75.4894863 21.6654066,71.3821267 Z M37.3137876,79.548524 C35.1044528,81.7713303 32.2227118,82.9793773 29.1488547,82.9793773 C26.0749975,82.9793773 23.1932565,81.7713303 20.9839217,79.548524 C18.8226159,77.3740395 17.6699195,74.4747269 17.6699195,71.3821267 C17.6699195,68.6277797 18.966703,66.0183983 20.6957476,63.9405576 L18.1502097,63.9405576 L18.1502097,59.7848761 L53.4035085,59.7848761 L53.4035085,63.9405576 L37.6019618,63.9405576 C39.3310064,66.0183983 40.6277899,68.6277797 40.6277899,71.3821267 C40.6277899,74.4747269 39.4750934,77.3740395 37.3137876,79.548524 Z M21.285787,34.0145505 C20.1390612,34.0145505 19.2094563,33.0905795 19.2094563,31.9508036 C19.2094563,30.8110277 20.1390612,29.8870568 21.285787,29.8870568 C22.4325128,29.8870568 23.3621177,30.8110277 23.3621177,31.9508036 C23.3621177,33.0905795 22.4325128,34.0145505 21.285787,34.0145505 Z M50.0775723,34.0145505 C48.9308465,34.0145505 48.0012416,33.0905795 48.0012416,31.9508036 C48.0012416,30.8110277 48.9308465,29.8870568 50.0775723,29.8870568 C51.224298,29.8870568 52.1539029,30.8110277 52.1539029,31.9508036 C52.1539029,33.0905795 51.224298,34.0145505 50.0775723,34.0145505 Z" id="Combined-Shape" fill="#FFFFFF"></path>
                    </g>
                </g>
            </g>
        </g>
    </g>
</svg>